<svg width="18" height="20" viewBox="0 0 18 20" fill="none" xmlns="http://www.w3.org/2000/svg">
    <path d="M12.6989 8.79998C12.6989 9.75476 12.3196 10.6704 11.6445 11.3456C10.9693 12.0207 10.0537 12.4 9.09889 12.4C8.14411 12.4 7.22843 12.0207 6.5533 11.3456C5.87817 10.6704 5.49889 9.75476 5.49889 8.79998C5.49889 7.8452 5.87817 6.92953 6.5533 6.2544C7.22843 5.57926 8.14411 5.19998 9.09889 5.19998C10.0537 5.19998 10.9693 5.57926 11.6445 6.2544C12.3196 6.92953 12.6989 7.8452 12.6989 8.79998ZM11.4989 8.79998C11.4989 8.16346 11.246 7.55301 10.7959 7.10292C10.3459 6.65284 9.73541 6.39998 9.09889 6.39998C8.46237 6.39998 7.85192 6.65284 7.40183 7.10292C6.95174 7.55301 6.69889 8.16346 6.69889 8.79998C6.69889 9.4365 6.95174 10.0469 7.40183 10.497C7.85192 10.9471 8.46237 11.2 9.09889 11.2C9.73541 11.2 10.3459 10.9471 10.7959 10.497C11.246 10.0469 11.4989 9.4365 11.4989 8.79998ZM15.0389 14.746C16.6144 13.1697 17.4994 11.0322 17.4994 8.80358C17.4994 6.57492 16.6144 4.43749 15.0389 2.86118C14.2589 2.08108 13.3328 1.46226 12.3136 1.04007C11.2944 0.617874 10.2021 0.400574 9.09889 0.400574C7.99571 0.400574 6.90334 0.617874 5.88415 1.04007C4.86496 1.46226 3.93891 2.08108 3.15889 2.86118C1.5834 4.43749 0.698364 6.57492 0.698364 8.80358C0.698364 11.0322 1.5834 13.1697 3.15889 14.746L4.98409 16.5448L7.43569 18.9268L7.59529 19.0684C8.52529 19.822 9.88729 19.774 10.7633 18.9268L13.6853 16.0828L15.0389 14.746ZM4.00489 3.70718C4.67357 3.03775 5.46765 2.50668 6.34171 2.14435C7.21578 1.78201 8.15269 1.59552 9.09889 1.59552C10.0451 1.59552 10.982 1.78201 11.8561 2.14435C12.7301 2.50668 13.5242 3.03775 14.1929 3.70718C15.506 5.02202 16.2609 6.79296 16.3003 8.65078C16.3396 10.5086 15.6604 12.3099 14.4041 13.6792L14.1929 13.9L12.6077 15.4648L9.93169 18.0676L9.81889 18.1636C9.61104 18.3192 9.35833 18.4032 9.09869 18.403C8.83904 18.4028 8.58647 18.3183 8.37889 18.1624L8.26729 18.0664L4.69129 14.5804L4.00489 13.9L3.79369 13.6804C2.53742 12.3111 1.85815 10.5098 1.89749 8.65198C1.93684 6.79416 2.69177 5.02202 4.00489 3.70718Z"
          fill="white"/>
</svg>
