<svg width="26" height="26" viewBox="0 0 26 26" fill="none" xmlns="http://www.w3.org/2000/svg">
    <path d="M3.99999 0.399994C3.04521 0.399994 2.12954 0.779278 1.45441 1.45441C0.779278 2.12954 0.399994 3.04521 0.399994 3.99999V7.59999C0.399994 8.55477 0.779278 9.47045 1.45441 10.1456C2.12954 10.8207 3.04521 11.2 3.99999 11.2H7.59999C8.55477 11.2 9.47045 10.8207 10.1456 10.1456C10.8207 9.47045 11.2 8.55477 11.2 7.59999V3.99999C11.2 3.04521 10.8207 2.12954 10.1456 1.45441C9.47045 0.779278 8.55477 0.399994 7.59999 0.399994H3.99999ZM3.99999 14.8C3.04521 14.8 2.12954 15.1793 1.45441 15.8544C0.779278 16.5295 0.399994 17.4452 0.399994 18.4V22C0.399994 22.9548 0.779278 23.8704 1.45441 24.5456C2.12954 25.2207 3.04521 25.6 3.99999 25.6H7.59999C8.55477 25.6 9.47045 25.2207 10.1456 24.5456C10.8207 23.8704 11.2 22.9548 11.2 22V18.4C11.2 17.4452 10.8207 16.5295 10.1456 15.8544C9.47045 15.1793 8.55477 14.8 7.59999 14.8H3.99999ZM14.8 3.99999C14.8 3.04521 15.1793 2.12954 15.8544 1.45441C16.5295 0.779278 17.4452 0.399994 18.4 0.399994H22C22.9548 0.399994 23.8704 0.779278 24.5456 1.45441C25.2207 2.12954 25.6 3.04521 25.6 3.99999V7.59999C25.6 8.55477 25.2207 9.47045 24.5456 10.1456C23.8704 10.8207 22.9548 11.2 22 11.2H18.4C17.4452 11.2 16.5295 10.8207 15.8544 10.1456C15.1793 9.47045 14.8 8.55477 14.8 7.59999V3.99999ZM14.8 18.4C14.8 17.4452 15.1793 16.5295 15.8544 15.8544C16.5295 15.1793 17.4452 14.8 18.4 14.8H22C22.9548 14.8 23.8704 15.1793 24.5456 15.8544C25.2207 16.5295 25.6 17.4452 25.6 18.4V22C25.6 22.9548 25.2207 23.8704 24.5456 24.5456C23.8704 25.2207 22.9548 25.6 22 25.6H18.4C17.4452 25.6 16.5295 25.2207 15.8544 24.5456C15.1793 23.8704 14.8 22.9548 14.8 22V18.4Z"
          fill="white"/>
</svg>
