<svg width="348" height="183" viewBox="0 0 348 183" fill="none" xmlns="http://www.w3.org/2000/svg">
    <g filter="url(#filter0_d_1_882)">
        <path d="M0 70.3919C0 32.7513 0 13.931 12.3397 4.94486C24.6794 -4.04125 42.5914 1.73508 78.4152 13.2878L307.521 87.1711C322.214 91.9092 329.56 94.2783 333.775 100.058C333.781 100.066 333.787 100.074 333.793 100.082C338 105.868 338 113.587 338 129.024C338 149.742 338 160.102 331.57 166.543C331.561 166.552 331.552 166.561 331.543 166.57C325.102 173 314.742 173 294.024 173H44C23.2582 173 12.8873 173 6.44365 166.556C0 160.113 0 149.742 0 129V70.3919Z"
              fill="url(#paint0_linear_1_882)"/>
    </g>
    <defs>
        <filter id="filter0_d_1_882" x="0" y="0.545471" width="348" height="182.455" filterUnits="userSpaceOnUse"
                color-interpolation-filters="sRGB">
            <feFlood flood-opacity="0" result="BackgroundImageFix"/>
            <feColorMatrix in="SourceAlpha" type="matrix" values="0 0 0 0 0 0 0 0 0 0 0 0 0 0 0 0 0 0 127 0"
                           result="hardAlpha"/>
            <feOffset dx="5" dy="5"/>
            <feGaussianBlur stdDeviation="2.5"/>
            <feComposite in2="hardAlpha" operator="out"/>
            <feColorMatrix type="matrix" values="0 0 0 0 0 0 0 0 0 0 0 0 0 0 0 0 0 0 0.25 0"/>
            <feBlend mode="normal" in2="BackgroundImageFix" result="effect1_dropShadow_1_882"/>
            <feBlend mode="normal" in="SourceGraphic" in2="effect1_dropShadow_1_882" result="shape"/>
        </filter>
        <linearGradient id="paint0_linear_1_882" x1="326.5" y1="127" x2="5.49999" y2="128.5"
                        gradientUnits="userSpaceOnUse">
            <stop stop-color="#272E68"/>
            <stop offset="1" stop-color="#444C8D"/>
        </linearGradient>
    </defs>
</svg>
