<svg width="32" height="32" viewBox="0 0 32 32" fill="none" xmlns="http://www.w3.org/2000/svg">
    <path d="M16 2.66669C20.4133 2.66669 24 6.21335 24 10.6C24 16.5467 16 25.3334 16 25.3334C16 25.3334 7.99999 16.5467 7.99999 10.6C7.99999 6.21335 11.5867 2.66669 16 2.66669ZM16 8.00002C15.2928 8.00002 14.6145 8.28097 14.1144 8.78107C13.6143 9.28117 13.3333 9.95944 13.3333 10.6667C13.3333 11.3739 13.6143 12.0522 14.1144 12.5523C14.6145 13.0524 15.2928 13.3334 16 13.3334C16.7072 13.3334 17.3855 13.0524 17.8856 12.5523C18.3857 12.0522 18.6667 11.3739 18.6667 10.6667C18.6667 9.95944 18.3857 9.28117 17.8856 8.78107C17.3855 8.28097 16.7072 8.00002 16 8.00002ZM26.6667 25.3334C26.6667 28.28 21.8933 30.6667 16 30.6667C10.1067 30.6667 5.33333 28.28 5.33333 25.3334C5.33333 23.6134 6.96 22.08 9.48 21.1067L10.3333 22.32C8.89333 22.92 7.99999 23.7467 7.99999 24.6667C7.99999 26.5067 11.5867 28 16 28C20.4133 28 24 26.5067 24 24.6667C24 23.7467 23.1067 22.92 21.6667 22.32L22.52 21.1067C25.04 22.08 26.6667 23.6134 26.6667 25.3334Z"
          fill="white"/>
</svg>
