<svg width="4340" height="2357" viewBox="0 0 4340 2357" fill="none" xmlns="http://www.w3.org/2000/svg">
    <path opacity="0.5"
          d="M557.821 735.798C405.301 626.64 160.734 756.202 79.119 952.391C46.7738 1030.14 43.2711 1132.47 50.8298 1379.27C127.518 1278.3 239.774 1213.16 435.399 1314.95C507.125 1352.27 566.704 1459.48 636.017 1584.21C750.225 1789.73 890.86 2042.8 1155.81 2109.12C1228 2127.19 1297.15 2095.58 1374.58 2060.18C1485.48 2009.49 1613.35 1951.04 1791.46 2019.66C2412.25 2258.82 2737.83 2108.12 2990.75 1890.51C2873.66 1802.67 2754.37 1720.01 2612.32 1704.19C2478.94 1689.34 2361.78 1712.34 2255.9 1733.12C2111.5 1761.46 1988.08 1785.69 1873.08 1704.19C1783 1640.36 1757.45 1562.93 1730.82 1482.23C1698.52 1384.34 1664.63 1281.64 1512.09 1192.53C1405.47 1130.25 1301.05 1150.43 1196.65 1170.6C1092.19 1190.79 987.752 1210.97 881.141 1148.58C788.408 1094.31 748.051 1014.89 707.507 935.096C670.784 862.825 633.908 790.253 557.821 735.798Z"
          fill="url(#paint0_linear_159_57)"/>
    <path opacity="0.5"
          d="M628.195 1232.33C242.094 1031.44 72.5862 1357.35 72.5862 1357.35V1362.94C144.242 1271.71 259.521 1232.67 439.853 1326.5C511.579 1363.82 571.158 1471.04 640.471 1595.77C754.679 1801.28 895.314 2054.36 1160.26 2120.68C1232.46 2138.75 1301.61 2107.14 1379.04 2071.74C1489.93 2021.05 1617.8 1962.6 1795.91 2031.21C2575.56 2331.58 2889.57 2017.02 3178.81 1727.28C3379.27 1526.49 3567.82 1337.61 3891.22 1373.59C4127.56 1399.88 4261.69 1491.35 4333.6 1606.65C4279.76 1448.5 4147.15 1311.38 3859.83 1279.42C3532.57 1243.01 3381.1 1436.85 3222.12 1640.3C2997.3 1928.01 2757.46 2234.93 1984.26 1937.04C1806.15 1868.43 1678.27 1926.88 1567.38 1977.57C1489.95 2012.97 1420.8 2044.58 1348.6 2026.51C1083.66 1960.19 943.021 1707.11 828.813 1501.6C759.5 1376.87 699.921 1269.65 628.195 1232.33Z"
          fill="url(#paint1_linear_159_57)"/>
    <foreignObject x="0" y="906" width="4339.7" height="1246.56">
        <div xmlns="http://www.w3.org/1999/xhtml" style="backdrop-filter:blur(25px);clip-path:url(#bgblur_0_159_57_clip_path);height:100%;width:100%"></div>
    </foreignObject>
    <g filter="url(#filter0_f_159_57)" data-figma-bg-blur-radius="50">
        <path d="M3692.19 995.579C3911.92 911.849 4181.61 959.083 4263.23 1155.27C4292.23 1225 4294.11 1355.46 4284.48 1494.66C4214.43 1373.86 4079.35 1277.02 3835.02 1249.84C3511.62 1213.86 3323.06 1402.74 3122.61 1603.53C2924.22 1802.26 2714.18 2012.67 2350.23 2028.32H2261.94C2114.26 2022.22 1942.78 1985.7 1739.71 1907.47C1561.6 1838.85 1433.73 1897.3 1322.84 1947.99C1245.41 1983.39 975.636 2118.98 903.44 2100.91C638.493 2034.59 497.858 1781.52 383.65 1576C314.337 1451.27 455.376 1240.08 383.65 1202.75C229.204 1122.39 122.474 1142.19 50 1206.84C59.2818 1091.12 55.6021 1038.5 118.392 995.579C181.182 952.661 282.641 1029.41 348.235 1106.87C423.254 1195.46 465.645 1189.45 659.913 1179.31C824.5 1170.72 831.773 1116.5 947 1106.87C1071.58 1096.45 1148.93 1181.46 1265.71 1136.84C1438 1071 1578.64 1094.64 1777.62 1251.46C1801.99 1270.67 1828.86 1291.84 1858.99 1315.13C2001.26 1425.06 2091.9 1363.59 2189.88 1258.04C2282.15 1158.64 2380.92 1052.23 2535.45 1105.58C2617.11 1133.78 2685.79 1172.37 2749.12 1207.96C2866.84 1274.12 2966.07 1329.88 3095.77 1289.08C3265.87 1235.57 3378.59 1167.68 3480.05 1106.59C3551.02 1063.85 3616.47 1024.43 3692.19 995.579Z"
              fill="url(#paint2_linear_159_57)"/>
    </g>
    <g filter="url(#filter1_f_159_57)">
        <rect x="1441.36" y="904.284" width="1080" height="1390" transform="rotate(-34 1441.36 904.284)" fill="url(#paint3_radial_159_57)"/>
    </g>
    <defs>
        <filter id="filter0_f_159_57" x="0" y="906" width="4339.7" height="1246.56" filterUnits="userSpaceOnUse" color-interpolation-filters="sRGB">
            <feFlood flood-opacity="0" result="BackgroundImageFix"/>
            <feBlend mode="normal" in="SourceGraphic" in2="BackgroundImageFix" result="shape"/>
            <feGaussianBlur stdDeviation="25" result="effect1_foregroundBlur_159_57"/>
        </filter>
        <clipPath id="bgblur_0_159_57_clip_path" transform="translate(0 -906)">
            <path d="M3692.19 995.579C3911.92 911.849 4181.61 959.083 4263.23 1155.27C4292.23 1225 4294.11 1355.46 4284.48 1494.66C4214.43 1373.86 4079.35 1277.02 3835.02 1249.84C3511.62 1213.86 3323.06 1402.74 3122.61 1603.53C2924.22 1802.26 2714.18 2012.67 2350.23 2028.32H2261.94C2114.26 2022.22 1942.78 1985.7 1739.71 1907.47C1561.6 1838.85 1433.73 1897.3 1322.84 1947.99C1245.41 1983.39 975.636 2118.98 903.44 2100.91C638.493 2034.59 497.858 1781.52 383.65 1576C314.337 1451.27 455.376 1240.08 383.65 1202.75C229.204 1122.39 122.474 1142.19 50 1206.84C59.2818 1091.12 55.6021 1038.5 118.392 995.579C181.182 952.661 282.641 1029.41 348.235 1106.87C423.254 1195.46 465.645 1189.45 659.913 1179.31C824.5 1170.72 831.773 1116.5 947 1106.87C1071.58 1096.45 1148.93 1181.46 1265.71 1136.84C1438 1071 1578.64 1094.64 1777.62 1251.46C1801.99 1270.67 1828.86 1291.84 1858.99 1315.13C2001.26 1425.06 2091.9 1363.59 2189.88 1258.04C2282.15 1158.64 2380.92 1052.23 2535.45 1105.58C2617.11 1133.78 2685.79 1172.37 2749.12 1207.96C2866.84 1274.12 2966.07 1329.88 3095.77 1289.08C3265.87 1235.57 3378.59 1167.68 3480.05 1106.59C3551.02 1063.85 3616.47 1024.43 3692.19 995.579Z"/>
        </clipPath>
        <filter id="filter1_f_159_57" x="1141.36" y="0.355591" width="2272.64" height="2356.29" filterUnits="userSpaceOnUse" color-interpolation-filters="sRGB">
            <feFlood flood-opacity="0" result="BackgroundImageFix"/>
            <feBlend mode="normal" in="SourceGraphic" in2="BackgroundImageFix" result="shape"/>
            <feGaussianBlur stdDeviation="150" result="effect1_foregroundBlur_159_57"/>
        </filter>
        <linearGradient id="paint0_linear_159_57" x1="1802.19" y1="1417.98" x2="1475.73" y2="2074.03" gradientUnits="userSpaceOnUse">
            <stop stop-color="#F6C6EC"/>
            <stop offset="0.453187" stop-color="#EE80D2"/>
            <stop offset="1" stop-color="#F5CAFC"/>
        </linearGradient>
        <linearGradient id="paint1_linear_159_57" x1="967.21" y1="577.305" x2="3064.08" y2="2077.76" gradientUnits="userSpaceOnUse">
            <stop offset="0.117688" stop-color="#DFDEFE" stop-opacity="0"/>
            <stop offset="0.419435" stop-color="#F9CEFE"/>
            <stop offset="0.585001" stop-color="#F0E0FF"/>
            <stop offset="0.735632" stop-color="#DCC7FF"/>
            <stop offset="1" stop-color="#F8DFFE"/>
        </linearGradient>
        <linearGradient id="paint2_linear_159_57" x1="2601.76" y1="1205.19" x2="862" y2="2193" gradientUnits="userSpaceOnUse">
            <stop stop-color="#805BCA" stop-opacity="0.82"/>
            <stop offset="0.912931" stop-color="#8180F3" stop-opacity="0.0713963"/>
            <stop offset="1" stop-color="#8183F7" stop-opacity="0"/>
        </linearGradient>
        <radialGradient id="paint3_radial_159_57" cx="0" cy="0" r="1" gradientUnits="userSpaceOnUse" gradientTransform="translate(1560.52 1665.83) rotate(18.0546) scale(815.372 891.151)">
            <stop stop-color="#F7CBFD"/>
            <stop offset="1" stop-color="#7758D1"/>
        </radialGradient>
    </defs>
</svg>
